<svg width="20" height="20" viewBox="0 0 20 20" xmlns="http://www.w3.org/2000/svg">
  <title>
    G.O.A.T. App
  </title>
	<g id="icon--goat-app">
    <path d="M12.788 14.04h.004c.618.057 1.29.103 2.05.14 3.19.154 3.792-.354 3.622-1.646-.095-.724-4.287-4.96-6.557-6.83-.302-.247-.68-.4-1.1-.46-.11.302-.4.518-.74.518-.29 0-.545-.156-.682-.388-.434.133-.868.348-1.27.647.252 1.595-.41 2.88-2.063 2.974-.11.19-.23.385-.354.582-.405.644-.87 1.316-1.383 2.01-.658.886-1.36 1.76-2.064 2.587-.244.29-.472.552-.68.783-.122.14-.21.24-.26.292-.283.308-.76.327-1.067.042-.306-.286-.324-.767-.04-1.075l.244-.273c.2-.224.42-.478.66-.76.682-.8 1.364-1.65 2-2.508.468-.632.893-1.245 1.264-1.83-1.18-.262-2.08-.853-2.695-1.692-.55-.745-.82-1.64-.82-2.176C.855 1.854 1.988 0 5.855 0 8.01 0 9.46.963 10.247 2.53c.203.404.345.804.44 1.18.81.05 1.57.32 2.176.82 2.733 2.25 6.925 6.484 7.098 7.804.308 2.336-1.14 3.56-5.19 3.364-.78-.037-1.473-.086-2.113-.144-.534-.048-1.44-.154-1.857-.2-.107.366-.292.958-.542 1.74l-.026.08c-.143.444-.295.915-.448 1.383-.09.28-.162.498-.203.622-.13.396-.556.612-.952.48-.395-.13-.61-.56-.48-.96.042-.123.112-.34.203-.618.153-.466.305-.934.447-1.376l.025-.08c.323-1.004.542-1.715.594-1.932.078-.326.226-.56.446-.705-.366-.32-.632-.687-.8-1.097-.28-.685-.256-1.39-.056-2.055.057-.19.116-.335.16-.427.173-.347.637-.507 1.036-.357.4.15.583.554.41.903-.015.03-.048.112-.084.23-.126.42-.14.86.018 1.245.215.53.746.95 1.755 1.223.23.063.4.207.49.385zm-7.58-6.647c.053-.104.103-.207.15-.307.273-.577.617-1.083 1.01-1.516-.098-.26-.223-.5-.353-.677-.03-.038-.055-.07-.08-.098-.29.03-.584-.102-.75-.365-.23-.368-.118-.853.252-1.083.872-.542 1.69.12 2.204 1.17.465-.286.956-.497 1.45-.633-.066-.224-.15-.443-.256-.652-.528-1.052-1.446-1.66-2.978-1.66-2.787 0-3.42 1.037-3.42 3.404 0 .997.816 2.2 2.773 2.417zm7.397 2.356c-.552 0-1-.45-1-1 0-.554.448-1 1-1 .553 0 1 .446 1 1 0 .55-.447 1-1 1z" fill-rule="nonzero" fill="#000"/>
  </g>
</svg>
