<?xml version="1.0" encoding="UTF-8"?>
<svg width="16px" height="16px" viewBox="0 0 16 16" version="1.1" xmlns="http://www.w3.org/2000/svg" xmlns:xlink="http://www.w3.org/1999/xlink">
    <!-- Generator: Sketch 41 (35326) - http://www.bohemiancoding.com/sketch -->
    <title>Combined Shape</title>
    <desc>Created with Sketch.</desc>
    <defs></defs>
    <g id="Page-1" stroke="none" stroke-width="1" fill="none" fill-rule="evenodd">
        <g id="icon---emoji" fill="#000000">
            <path d="M8,14.5 C11.5898509,14.5 14.5,11.5898509 14.5,8 C14.5,4.41014913 11.5898509,1.5 8,1.5 C4.41014913,1.5 1.5,4.41014913 1.5,8 C1.5,11.5898509 4.41014913,14.5 8,14.5 Z M8,16 C3.581722,16 0,12.418278 0,8 C0,3.581722 3.581722,0 8,0 C12.418278,0 16,3.581722 16,8 C16,12.418278 12.418278,16 8,16 Z M5,8 C5.55228475,8 6,7.55228475 6,7 C6,6.44771525 5.55228475,6 5,6 C4.44771525,6 4,6.44771525 4,7 C4,7.55228475 4.44771525,8 5,8 Z M11,8 C11.5522847,8 12,7.55228475 12,7 C12,6.44771525 11.5522847,6 11,6 C10.4477153,6 10,6.44771525 10,7 C10,7.55228475 10.4477153,8 11,8 Z M4.50039757,9.01993531 C4.51803358,9.4619143 4.6438734,10.0913695 4.97627288,10.7306593 C5.54584428,11.8260918 6.54326135,12.5 8,12.5 C9.5234453,12.5 10.5403205,11.824581 11.0856848,10.7216156 C11.400382,10.0851602 11.5025639,9.45550007 11.4999998,8.99822647 L10.5000308,9.00554684 C10.5004541,9.08205121 10.4910074,9.224121 10.4613451,9.40690469 C10.4126823,9.70677201 10.3245434,10.0048175 10.1892775,10.2783844 C9.80754281,11.050419 9.13067742,11.5 8,11.5 C6.93648233,11.5 6.26884447,11.0489082 5.86350741,10.2693407 C5.71652014,9.9866463 5.61563956,9.67901945 5.55400681,9.37073029 C5.5173693,9.18746817 5.50235598,9.04907199 5.49960243,8.98006469 L4.50039757,9.01993531 Z" id="Combined-Shape"></path>
        </g>
    </g>
</svg>