<?xml version="1.0" encoding="utf-8"?>
<!-- Generator: Adobe Illustrator 18.1.0, SVG Export Plug-In . SVG Version: 6.00 Build 0)  -->
<svg version="1.1" id="Layer_1" xmlns="http://www.w3.org/2000/svg" xmlns:xlink="http://www.w3.org/1999/xlink" x="0px" y="0px"
	 viewBox="0 0 500 500" enable-background="new 0 0 500 500" xml:space="preserve">
<g id="icon---annotator-app">
	<path fill="#010101" d="M492.8,58L442,7.2c-9.6-9.6-25.3-9.6-34.8,0l-17.6,17.6l-1.5,1.5L377.4,37l85.5,85.5l10.8-10.8l1.5-1.5
		l17.6-17.6C502.4,83.2,502.4,67.6,492.8,58z"/>
	<path fill="#010101" d="M51.7,362.4l85.5,85.5l308.5-308.5l-85.5-85.5L51.7,362.4z M395.2,148.7L146.4,397.3l-9.3-9.3l248.8-248.8
		L395.2,148.7z M111.7,362.6l-9.3-9.3l248.7-248.8l9.3,9.3L111.7,362.6z"/>
	<polygon fill="#010101" points="36.4,377.9 14.1,452.9 47.1,485.9 122.1,463.6 79.3,420.7 	"/>
	<polygon fill="#010101" points="0,500 36,489.2 10.8,464 	"/>
</g>
</svg>
